<?xml version="1.0" encoding="utf-8"?>
<!-- Generator: Adobe Illustrator 26.5.0, SVG Export Plug-In . SVG Version: 6.00 Build 0)  -->
<svg version="1.1" id="Layer_1" xmlns="http://www.w3.org/2000/svg" xmlns:xlink="http://www.w3.org/1999/xlink" x="0px" y="0px"
	 viewBox="0 0 144 144" style="enable-background:new 0 0 144 144;" xml:space="preserve">
<style type="text/css">
	.st0{fill:#F8EFD4;}
</style>
<g>
	<path class="st0" d="M101,9c1,0,1.8,1,1.5,2l-8.2,28.3c-0.3,1,0.5,2,1.5,2c0.1,0,0.2,0,0.3,0l12.5-2.4c0.1,0,0.2,0,0.3,0
		c1.1,0,2,1.2,1.4,2.3l-35.6,71l-0.6,1c-0.3,0.5-0.8,0.7-1.3,0.7c-0.9,0-1.8-0.8-1.6-1.9l5.7-27.8c0.2-1-0.6-1.9-1.6-1.9
		c-0.2,0-0.3,0-0.5,0.1l-7.5,2.3c-0.2,0-0.3,0.1-0.5,0.1c-1,0-1.8-0.9-1.6-1.9l3.6-17.7c0.2-1-0.6-1.9-1.6-1.9c-0.1,0-0.2,0-0.4,0
		L55,66.1c-0.1,0-0.2,0-0.4,0c-0.9,0-1.7-0.8-1.6-1.7l2.7-45.4c0-0.7,0.6-1.3,1.3-1.5L100.7,9C100.8,9,100.9,9,101,9 M101,4
		c-0.4,0-0.9,0-1.3,0.1l-43.7,8.6c-2.9,0.6-5.1,3.1-5.3,6.1l-2.7,45.4c-0.1,1.8,0.5,3.6,1.8,4.9c1.2,1.3,3,2.1,4.8,2.1
		c0.5,0,1-0.1,1.5-0.2l7-1.6l-2.6,12.5c-0.4,2,0.1,4,1.4,5.5c1.3,1.5,3.1,2.4,5.1,2.4c0.7,0,1.3-0.1,1.9-0.3l2-0.6l-4.6,22.2
		c-0.4,2,0.1,4,1.3,5.5C69,118.1,71,119,73,119c2.2,0,4.3-1.1,5.5-3l0.6-1l0.1-0.2l0.1-0.2l35.6-71c1-2.1,0.9-4.5-0.3-6.4
		c-1.2-2-3.3-3.1-5.6-3.1c0,0,0,0,0,0c-0.4,0-0.8,0-1.3,0.1l-7.1,1.4l6.6-23c0.6-2,0.2-4.1-1.1-5.8C105.1,5,103.1,4,101,4L101,4z"/>
</g>
<path class="st0" d="M131.2,25.2l-34.5,6.3l-2.3,7.9c-0.3,1.2,0.7,2.2,1.8,2l12.5-2.4c1.3-0.3,2.3,1.1,1.7,2.3l-35.6,71l-0.6,1
	c-1,1.5-3.3,0.5-2.9-1.2l5.7-27.8c0.2-1.2-0.9-2.2-2-1.9l-7.5,2.3c-1.2,0.4-2.3-0.7-2-1.9l3.6-17.7c0.2-1.1-0.8-2.1-1.9-1.9L55,66.1
	c-1,0.2-2-0.6-2-1.7L55,32.8l-42.8-7.7c-2.7-0.5-4.7,2.4-3.4,4.8l60.7,106.4c1.2,2.2,4.4,2.2,5.6,0l59.5-106.4
	C135.9,27.5,133.9,24.7,131.2,25.2z"/>
</svg>
